<svg width="100%" height="100%" version="1.1" viewBox="0 0 24 24" xml:space="preserve" xmlns="http://www.w3.org/2000/svg"><path d="m19.858 6.474c-0.28831-1.2494-1.4416-2.1624-2.787-2.1624h-10.091a2.9408 2.9408 0 0 0-2.8351 2.1624l-1.0091 3.8442c-0.19221 0.67274 0.096105 1.3455 0.67273 1.7299l0.19221 0.14416c0.28831 0.14416 0.52858 0.28832 0.81689 0.33637v5.2377a1.9279 1.9279 0 0 0 1.9221 1.9221h2.2585a1.9279 1.9279 0 0 0 1.9221-1.9221v-1.9221h2.6429v1.9221a1.9279 1.9279 0 0 0 1.9221 1.9221h1.826a1.9279 1.9279 0 0 0 1.9221-1.9221v-5.2377a2.123 2.123 0 0 0 0.76884-0.28832l0.19221-0.14416a1.6213 1.6213 0 0 0 0.67273-1.7779zm-2.4507 11.292h-1.9221v-1.9221a1.9279 1.9279 0 0 0-1.9221-1.9221h-2.6429a1.9279 1.9279 0 0 0-1.9221 1.9221v1.9221h-2.2585v-5.7663c0.62468-0.24026 1.2974-0.14416 1.874 0.19221a2.0249 2.0249 0 0 0 2.3065 0 2.0249 2.0249 0 0 1 2.3065 0 2.0249 2.0249 0 0 0 2.3065 0 2.0057 2.0057 0 0 1 1.874-0.19221zm1.3935-7.1598a3.9105 3.9105 0 0 0-4.4208 0 0.090339 0.090339 0 0 1-0.14416 0 3.9105 3.9105 0 0 0-4.4208 0 0.090339 0.090339 0 0 1-0.14416 0 3.9105 3.9105 0 0 0-4.4208 0 0.090339 0.090339 0 0 1-0.14416 0l0.913-3.652c0.096105-0.43247 0.48052-0.72079 0.96105-0.72079h10.139a0.92645 0.92645 0 0 1 0.913 0.72079l0.913 3.652s-0.0961 0.04805-0.14416 0zm5.0909 1.3935a11.892 11.693 0 0 1-11.892 11.693 11.892 11.693 0 0 1-11.892-11.693 11.892 11.693 0 0 1 11.892-11.693 11.892 11.693 0 0 1 11.892 11.693z" stroke-width=".096105"/></svg>
