<?xml version="1.0" encoding="UTF-8"?>
<!-- Uploaded to: SVG Repo, www.svgrepo.com, Generator: SVG Repo Mixer Tools -->
<svg width="800px" height="800px" version="1.1" viewBox="0 0 24 24" xmlns="http://www.w3.org/2000/svg">
 <ellipse cx="12" cy="12" rx="11.892" ry="11.693" stroke-width=".063474"/>
 <path d="m5.2033 9.7336h13.593m-10.573-4.5311v1.5104m7.5519-1.5104v1.5104m-8.3071 6.0415h1.5104m-1.5104 3.0207h1.5104m2.2656-3.0207h1.5104m-1.5104 3.0207h1.5104m2.2656-3.0207h1.5104m-1.5104 3.0207h1.5104m-8.9112 3.0207h8.7602c0.84588 0 1.2689 0 1.5919-0.16463 0.28418-0.14477 0.51526-0.37586 0.66003-0.66003 0.16463-0.32307 0.16463-0.74605 0.16463-1.5919v-7.2498c0-0.84589 0-1.2688-0.16463-1.5919-0.14477-0.2842-0.37586-0.51526-0.66003-0.66006-0.32307-0.16462-0.74605-0.16462-1.5919-0.16462h-8.7602c-0.84588 0-1.2688 0-1.5919 0.16462-0.2842 0.1448-0.51526 0.37586-0.66006 0.66006-0.16462 0.32308-0.16462 0.74603-0.16462 1.5919v7.2498c0 0.84588 0 1.2689 0.16462 1.5919 0.1448 0.28418 0.37586 0.51526 0.66006 0.66003 0.32308 0.16463 0.74603 0.16463 1.5919 0.16463z" fill="none" stroke="#fff" stroke-linecap="round" stroke-linejoin="round" stroke-width="1.5104"/>
</svg>
