<svg width="100%" height="100%" version="1.1" viewBox="0 0 24 24" xmlns="http://www.w3.org/2000/svg">
 <path d="m8.2227 4.4473a0.7552 0.7552 0 0 0-0.75391 0.75586v0.77344c-0.73656-0.0035267-1.2681-0.034921-1.7852 0.22852-0.42623 0.21716-0.77112 0.56401-0.98828 0.99023-0.28566 0.56063-0.24805 1.0877-0.24805 1.9336v7.25c0 0.84588-0.037706 1.3749 0.24805 1.9355 0.21694 0.42577 0.56256 0.77304 0.98828 0.99023 0.56064 0.28568 1.0897 0.24609 1.9355 0.24609h8.7598c0.84588 0 1.3749 0.03968 1.9355-0.24609 0.42627-0.21716 0.77309-0.56399 0.99023-0.99023 0.2857-0.56066 0.24609-1.0897 0.24609-1.9355v-7.25c0-0.84589 0.03956-1.373-0.24609-1.9336-0.21716-0.42631-0.56407-0.77308-0.99023-0.99023-0.51652-0.26319-1.048-0.23206-1.7832-0.22852v-0.77344a0.7552 0.7552 0 0 0-0.75586-0.75586 0.7552 0.7552 0 0 0-0.75586 0.75586v0.75391h-6.041v-0.75391a0.7552 0.7552 0 0 0-0.75586-0.75586zm-0.60352 3.0215h8.7598c0.84585 0 1.1645 0.03847 1.25 0.082031 0.14217 0.072445 0.2577 0.18799 0.33008 0.33008 0.03835 0.075272 0.06449 0.46189 0.07227 1.0977h-12.064c0.00777-0.63579 0.03589-1.0224 0.074219-1.0977 0.072438-0.14217 0.1879-0.25764 0.33008-0.33008 0.085584-0.043605 0.40217-0.082031 1.248-0.082031zm-1.6621 3.0195h12.084v5.8906c0 0.84585-0.03847 1.1645-0.08203 1.25-0.07239 0.1421-0.18799 0.2577-0.33008 0.33008-0.08532 0.04349-0.40412 0.08203-1.25 0.08203h-8.7598c-0.84587 0-1.1625-0.03845-1.248-0.08203-0.1421-0.07239-0.25764-0.1879-0.33008-0.33008-0.043487-0.08533-0.083984-0.40412-0.083984-1.25zm1.5117 1.5117a0.7552 0.7552 0 0 0-0.75586 0.75391 0.7552 0.7552 0 0 0 0.75586 0.75586h1.5098a0.7552 0.7552 0 0 0 0.75586-0.75586 0.7552 0.7552 0 0 0-0.75586-0.75391zm3.7754 0a0.7552 0.7552 0 0 0-0.75586 0.75391 0.7552 0.7552 0 0 0 0.75586 0.75586h1.5098a0.7552 0.7552 0 0 0 0.75586-0.75586 0.7552 0.7552 0 0 0-0.75586-0.75391zm3.7754 0a0.7552 0.7552 0 0 0-0.75391 0.75391 0.7552 0.7552 0 0 0 0.75391 0.75586h1.5117a0.7552 0.7552 0 0 0 0.75391-0.75586 0.7552 0.7552 0 0 0-0.75391-0.75391zm-7.5508 3.0195a0.7552 0.7552 0 0 0-0.75586 0.75586 0.7552 0.7552 0 0 0 0.75586 0.75586h1.5098a0.7552 0.7552 0 0 0 0.75586-0.75586 0.7552 0.7552 0 0 0-0.75586-0.75586zm3.7754 0a0.7552 0.7552 0 0 0-0.75586 0.75586 0.7552 0.7552 0 0 0 0.75586 0.75586h1.5098a0.7552 0.7552 0 0 0 0.75586-0.75586 0.7552 0.7552 0 0 0-0.75586-0.75586zm3.7754 0a0.7552 0.7552 0 0 0-0.75391 0.75586 0.7552 0.7552 0 0 0 0.75391 0.75586h1.5117a0.7552 0.7552 0 0 0 0.75391-0.75586 0.7552 0.7552 0 0 0-0.75391-0.75586zm8.8725-3.0195a11.892 11.693 0 0 1-11.892 11.693 11.892 11.693 0 0 1-11.892-11.693 11.892 11.693 0 0 1 11.892-11.693 11.892 11.693 0 0 1 11.892 11.693z" stroke-linecap="round" stroke-linejoin="round"/>
</svg>
